<svg xmlns="http://www.w3.org/2000/svg" xmlns:xlink="http://www.w3.org/1999/xlink" fill="#ffffff" width="50" height="50" style=""><rect id="backgroundrect" width="100%" height="100%" x="0" y="0" fill="none" stroke="none"/><g class="currentLayer" style=""><title>Layer 1</title><path d="M20.92450126260519,0.004427790641784668 C20.77606426260519,0.01614659064178467 20.63153226260519,0.039584090641784676 20.45575126260519,0.0981777906417847 C20.10418926260519,0.2153657906417847 19.82293926260519,0.4692717906417847 19.64325126260519,0.7231777906417848 C19.46356426260519,0.9770837906417846 19.35418926260519,1.2348967906417847 19.23700126260519,1.5356777906417847 C18.85418926260519,2.5122407906417847 17.89715726260519,5.395052790641785 17.42450126260519,6.754427790641785 C17.40497026260519,6.805208790641784 17.40887626260519,6.859896790641785 17.39325126260519,6.910677790641785 C17.38153226260519,6.930208790641784 17.36981426260519,6.953646790641785 17.36200126260519,6.973177790641785 L13.54950126260519,16.223177790641785 L13.48700126260519,16.316927790641785 C13.459657262605191,16.375521790641784 13.44012626260519,16.441927790641785 13.42450126260519,16.504427790641785 L5.11200126260519,36.535677790641785 C5.10028226260519,36.566927790641785 5.08856426260519,36.598177790641785 5.08075126260519,36.629427790641785 L0.08075126260519029,48.629427790641785 C-0.07940503739480975,49.004427790641785 0.0026262626051902736,49.441927790641785 0.2916892626051903,49.73099079064178 C0.5807512626051903,50.020052790641785 1.0182512626051903,50.102083790641785 1.3932512626051903,49.941927790641785 L42.73700126260519,32.848177790641785 C42.76825126260519,32.84036579064178 42.79950126260519,32.828646790641784 42.83075126260519,32.816927790641785 C43.81512626260519,32.500521790641784 47.26825126260519,31.309115790641783 48.17450126260519,31.004427790641785 C48.75653226260519,30.809115790641783 49.36200126260519,30.512240790641783 49.73700126260519,29.879427790641785 C50.11200126260519,29.246615790641783 50.08075126260519,28.422396790641784 49.76825126260519,27.691927790641785 C48.64325126260519,25.047396790641784 45.83075126260519,16.695833790641785 39.61200126260519,10.473177790641785 C33.58465726260519,4.445833790641784 25.77215726260519,1.2075527906417847 22.14325126260519,0.2231777906417847 C21.74090726260519,0.11380279064178468 21.37372026260519,-0.02682220935821534 20.92450126260519,0.004427790641784668 zM21.23700126260519,2.0044277906417847 C21.21747026260519,2.0278657906417847 21.23309526260519,2.0513027906417847 21.64325126260519,2.1606777906417847 C24.88153226260519,3.0356777906417847 32.54168926260519,6.215365790641784 38.20575126260519,11.879427790641785 C44.00262626260519,17.680208790641785 46.68622026260519,25.563021790641784 47.92450126260519,28.473177790641785 C48.08856426260519,28.859896790641784 48.01434526260519,28.852083790641785 48.01825126260519,28.848177790641785 C48.02215726260519,28.844271790641784 47.90887626260519,28.977083790641785 47.54950126260519,29.098177790641785 C46.59247026260519,29.418490790641783 43.11200126260519,30.629427790641785 42.23700126260519,30.910677790641785 C42.21747026260519,30.918490790641783 42.19403226260519,30.930208790641785 42.17450126260519,30.941927790641785 C42.17840726260519,30.941927790641785 42.18231426260519,30.914583790641785 42.11200126260519,30.723177790641785 C41.17059526260519,28.180208790641785 38.52997026260519,22.016146790641784 33.29950126260519,16.785677790641785 C28.24090726260519,11.727083790641785 22.29950126260519,9.086458790641785 19.61200126260519,8.066927790641785 C19.36200126260519,7.973177790641785 19.23700126260519,7.902865790641785 19.17450126260519,7.879427790641785 C19.17840726260519,7.855990790641784 19.22528226260519,7.766146790641785 19.23700126260519,7.723177790641785 C19.28387626260519,7.625521790641785 19.31512626260519,7.520052790641785 19.33075126260519,7.410677790641785 C19.81903226260519,6.008333790641784 20.81903226260519,3.0317717906417845 21.11200126260519,2.2856777906417847 C21.17450126260519,2.1255217906417845 21.20184526260519,2.0669277906417847 21.23700126260519,2.0044277906417847 zM18.39325126260519,9.754427790641785 C18.56512626260519,9.824740790641785 18.74090726260519,9.883333790641785 18.89325126260519,9.941927790641785 C21.42059526260519,10.898958790641785 27.14715726260519,13.445833790641785 31.89325126260519,18.191927790641785 C36.79950126260519,23.098177790641785 39.35418926260519,29.059115790641783 40.23700126260519,31.441927790641785 C40.26434526260519,31.512240790641783 40.29950126260519,31.590365790641783 40.33075126260519,31.660677790641785 L25.67450126260519,37.723177790641785 C25.87762626260519,37.18411579064178 26.01825126260519,36.613802790641785 26.01825126260519,36.004427790641785 C26.01825126260519,33.254427790641785 23.76825126260519,31.004427790641785 21.01825126260519,31.004427790641785 C18.26825126260519,31.004427790641785 16.01825126260519,33.254427790641785 16.01825126260519,36.004427790641785 C16.01825126260519,38.000521790641784 17.22137626260519,39.703646790641784 18.92450126260519,40.504427790641785 L2.8932512626051903,47.129427790641785 L6.01825126260519,39.598177790641785 C6.75262626260519,40.445833790641785 7.81903226260519,41.004427790641785 9.01825126260519,41.004427790641785 C11.21356426260519,41.004427790641785 13.01825126260519,39.203646790641784 13.01825126260519,37.004427790641785 C13.01825126260519,34.805208790641785 11.21356426260519,33.004427790641785 9.01825126260519,33.004427790641785 C8.92450126260519,33.004427790641785 8.83075126260519,33.02786579064178 8.73700126260519,33.035677790641785 L12.23700126260519,24.598177790641785 C13.334657262605191,26.051302790641785 15.06512626260519,27.004427790641785 17.01825126260519,27.004427790641785 C20.31903226260519,27.004427790641785 23.01825126260519,24.309115790641783 23.01825126260519,21.004427790641785 C23.01825126260519,17.699740790641783 20.31903226260519,15.004427790641785 17.01825126260519,15.004427790641785 C16.74481426260519,15.004427790641785 16.47137626260519,15.031771790641784 16.20575126260519,15.066927790641785 zM17.01825126260519,17.004427790641785 C19.24090726260519,17.004427790641785 21.01825126260519,18.781771790641784 21.01825126260519,21.004427790641785 C21.01825126260519,23.227083790641785 19.24090726260519,25.004427790641785 17.01825126260519,25.004427790641785 C15.21747026260519,25.004427790641785 13.71747026260519,23.840365790641783 13.20575126260519,22.223177790641785 L15.20575126260519,17.441927790641785 C15.74872026260519,17.164583790641785 16.36590726260519,17.004427790641785 17.01825126260519,17.004427790641785 zM31.01825126260519,21.004427790641785 C28.82293926260519,21.004427790641785 27.01825126260519,22.805208790641785 27.01825126260519,25.004427790641785 C27.01825126260519,25.328646790641784 27.03778226260519,25.641146790641784 27.11200126260519,25.941927790641785 C25.85418926260519,26.852083790641785 25.01825126260519,28.340365790641783 25.01825126260519,30.004427790641785 C25.01825126260519,32.754427790641785 27.26825126260519,35.004427790641785 30.01825126260519,35.004427790641785 C32.76825126260519,35.004427790641785 35.01825126260519,32.754427790641785 35.01825126260519,30.004427790641785 C35.01825126260519,29.035677790641785 34.72137626260519,28.148958790641785 34.23700126260519,27.379427790641785 C34.72918926260519,26.707552790641785 35.01825126260519,25.891146790641784 35.01825126260519,25.004427790641785 C35.01825126260519,22.805208790641785 33.21356426260519,21.004427790641785 31.01825126260519,21.004427790641785 zM31.01825126260519,23.004427790641785 C32.13543926260519,23.004427790641785 33.01825126260519,23.887240790641783 33.01825126260519,25.004427790641785 C33.01825126260519,25.313021790641784 32.95575126260519,25.621615790641783 32.83075126260519,25.879427790641785 C32.02606426260519,25.324740790641783 31.06512626260519,25.004427790641785 30.01825126260519,25.004427790641785 C29.67450126260519,25.004427790641785 29.34247026260519,25.031771790641784 29.01825126260519,25.098177790641785 C29.01825126260519,25.066927790641785 29.01825126260519,25.035677790641785 29.01825126260519,25.004427790641785 C29.01825126260519,23.887240790641783 29.90106426260519,23.004427790641785 31.01825126260519,23.004427790641785 zM30.01825126260519,27.004427790641785 C30.82684526260519,27.004427790641785 31.54168926260519,27.336458790641785 32.08075126260519,27.848177790641785 C32.15497026260519,27.961458790641785 32.24872026260519,28.055208790641785 32.36200126260519,28.129427790641785 C32.77215726260519,28.641146790641784 33.01825126260519,29.289583790641785 33.01825126260519,30.004427790641785 C33.01825126260519,31.672396790641784 31.68622026260519,33.004427790641785 30.01825126260519,33.004427790641785 C28.35028226260519,33.004427790641785 27.01825126260519,31.672396790641784 27.01825126260519,30.004427790641785 C27.01825126260519,28.887240790641783 27.61981426260519,27.926302790641785 28.51825126260519,27.410677790641785 C28.71747026260519,27.383333790641785 28.90106426260519,27.293490790641783 29.04950126260519,27.160677790641785 C29.35418926260519,27.059115790641783 29.67840726260519,27.004427790641785 30.01825126260519,27.004427790641785 zM21.01825126260519,33.004427790641785 C22.68622026260519,33.004427790641785 24.01825126260519,34.336458790641785 24.01825126260519,36.004427790641785 C24.01825126260519,37.672396790641784 22.68622026260519,39.004427790641785 21.01825126260519,39.004427790641785 C19.35028226260519,39.004427790641785 18.01825126260519,37.672396790641784 18.01825126260519,36.004427790641785 C18.01825126260519,34.336458790641785 19.35028226260519,33.004427790641785 21.01825126260519,33.004427790641785 zM9.01825126260519,35.004427790641785 C10.13543926260519,35.004427790641785 11.01825126260519,35.88724079064178 11.01825126260519,37.004427790641785 C11.01825126260519,38.12161579064178 10.13543926260519,39.004427790641785 9.01825126260519,39.004427790641785 C7.95575126260519,39.004427790641785 7.09637626260519,38.19974079064178 7.01825126260519,37.160677790641785 L7.70575126260519,35.504427790641785 C8.05731426260519,35.195833790641785 8.51043926260519,35.004427790641785 9.01825126260519,35.004427790641785 z" fill="#b6b6b6" id="svg_1" class="selected" opacity="0.42" fill-opacity="1"/></g></svg>